<svg version="1.1" id="Layer_1" xmlns="http://www.w3.org/2000/svg" xmlns:xlink="http://www.w3.org/1999/xlink" x="0px" y="0px"
	 width="100%" viewBox="0 0 738 652" enable-background="new 0 0 738 652" xml:space="preserve">
<path fill="#020202" opacity="1.000000" stroke="none" 
	d="
M500.000000,653.000000 
	C334.833344,653.000000 170.166656,652.985168 5.500062,653.093933 
	C1.750666,653.096375 0.904650,652.249207 0.906486,648.499939 
	C1.011438,434.166656 1.011438,219.833328 0.906486,5.500046 
	C0.904650,1.750777 1.750818,0.905026 5.500040,0.906622 
	C248.500000,1.010089 491.500000,1.010090 734.499939,0.906622 
	C738.249207,0.905026 739.095398,1.750777 739.093567,5.500046 
	C738.988586,219.833328 738.988586,434.166656 739.093567,648.499939 
	C739.095398,652.249207 738.249939,653.101501 734.499817,653.095459 
	C656.500061,652.968872 578.500000,653.000000 500.000000,653.000000 
z"/>
<path fill="#FDFDFD" opacity="1.000000" stroke="none" 
	d="
M200.999344,541.021973 
	C178.002960,541.022278 155.505554,540.921082 133.010742,541.116577 
	C128.971115,541.151672 128.020020,539.901672 128.022354,536.030396 
	C128.107620,394.719086 128.106110,253.407684 127.993195,112.096397 
	C127.989822,107.890572 129.203445,106.781654 133.320923,106.806526 
	C160.982285,106.973633 188.645477,106.956360 216.307129,106.815216 
	C219.782684,106.797485 221.664261,107.965981 223.411255,110.922356 
	C269.124115,188.280380 314.931549,265.582520 360.729370,342.890350 
	C362.160858,345.306702 363.662933,347.681335 365.601318,350.839996 
	C369.963928,343.864441 374.030487,337.484589 377.977264,331.031433 
	C401.316406,292.871124 424.628448,254.694199 447.947418,216.521561 
	C450.568512,212.230896 450.994446,212.238739 453.712646,216.746140 
	C505.851929,303.205688 557.982849,389.670258 610.162170,476.105621 
	C611.504639,478.329498 612.254578,480.503326 612.243958,483.120789 
	C612.174622,500.284515 612.089905,517.450012 612.296631,534.611511 
	C612.342712,538.443054 610.960693,539.466858 607.442810,539.528748 
	C585.123413,539.921448 562.804504,540.386353 540.490601,541.009888 
	C537.401489,541.096130 536.113464,539.636475 534.763489,537.314697 
	C507.850189,491.027466 480.887573,444.768829 453.901947,398.523651 
	C452.758698,396.564484 452.120331,393.262390 449.832031,393.318512 
	C447.814728,393.368042 447.070374,396.611908 445.918182,398.522278 
	C420.151764,441.243011 394.429321,483.990234 368.675415,526.718506 
	C367.829071,528.122620 367.124969,529.699707 365.009766,530.806763 
	C317.233124,451.172668 269.438599,371.508881 221.456207,291.531921 
	C219.208054,293.849243 219.990494,296.119629 219.989365,298.115448 
	C219.945435,376.269836 219.954102,454.424255 219.967178,532.578674 
	C219.968597,541.015381 220.000137,541.016052 211.496948,541.021240 
	C208.164368,541.023315 204.831802,541.021851 200.999344,541.021973 
z"/>
<path fill="#FCFCFC" opacity="1.000000" stroke="none" 
	d="
M519.486328,199.999710 
	C519.483582,169.841949 519.546265,140.183884 519.399353,110.526855 
	C519.379822,106.602036 520.117126,105.002991 524.519531,105.033150 
	C552.343140,105.223755 580.169128,105.188560 607.993286,105.037407 
	C611.857117,105.016418 613.151733,105.955475 613.146851,110.050232 
	C613.030396,208.353836 613.055908,306.657593 613.022888,404.961334 
	C613.022400,406.534363 613.593689,408.288879 611.710876,410.220398 
	C608.620178,405.167023 605.633789,400.319000 602.680847,395.450684 
	C575.687988,350.948792 548.715942,306.434265 521.672546,261.963135 
	C520.134460,259.433868 519.429321,256.932983 519.443481,253.983612 
	C519.529114,236.155991 519.486206,218.327759 519.486328,199.999710 
z"/>
<path fill="#FBFBFB" opacity="1.000000" stroke="none" 
	d="
M316.000244,107.382225 
	C339.166046,107.381317 361.832306,107.456985 384.497009,107.301102 
	C388.108063,107.276268 390.219543,108.337944 392.041107,111.541962 
	C403.634857,131.934738 415.397400,152.232117 427.218384,172.494385 
	C428.723206,175.073776 429.000702,177.054016 427.337982,179.757309 
	C410.956726,206.390457 394.716583,233.110397 378.418793,259.794922 
	C377.387512,261.483459 376.208984,263.082031 374.612793,265.440918 
	C371.405792,260.232117 368.468048,255.556183 365.622833,250.824631 
	C337.923645,204.761612 310.237183,158.690918 282.565155,112.611595 
	C281.738525,111.235107 280.000854,109.839851 280.898102,108.193024 
	C281.827637,106.486931 283.939209,107.434898 285.501801,107.422729 
	C295.500763,107.344826 305.500671,107.382530 316.000244,107.382225 
z"/>
</svg>