<svg version="1.1" id="Layer_1" xmlns="http://www.w3.org/2000/svg" xmlns:xlink="http://www.w3.org/1999/xlink" x="0px" y="0px"
	 width="100%" viewBox="0 0 730 684" enable-background="new 0 0 730 684" xml:space="preserve">
<path fill="#FEFEFE" opacity="1.000000" stroke="none" 
	d="
M730.601868,4.694974 
	C731.000000,230.119553 730.983398,455.239105 731.124390,680.358582 
	C731.127075,684.642273 729.972778,685.097229 726.143311,685.095520 
	C486.026947,684.989380 245.910538,684.987915 5.794183,685.104553 
	C1.834910,685.106445 0.880764,684.445984 0.883198,680.296082 
	C1.015054,455.509857 1.000000,230.723587 1.000000,5.468657 
	C2.459467,3.662633 4.277954,3.477874 6.129791,3.407125 
	C8.128254,3.330775 10.127845,3.358227 12.126978,3.358216 
	C248.041138,3.356931 483.955292,3.354202 719.869446,3.384324 
	C723.326782,3.384765 726.887390,2.760629 730.601868,4.694974 
z"/>
<path fill="#DBDBDB" opacity="1.000000" stroke="none" 
	d="
M731.000000,4.500122 
	C487.971954,4.999290 244.943939,4.998580 1.457952,4.998935 
	C0.247079,1.585044 1.567892,0.904000 4.994620,0.905481 
	C245.664719,1.009436 486.334869,0.999342 727.005005,1.011145 
	C729.020264,1.011244 731.934875,-0.017871 731.000000,4.500122 
z"/>
<path fill="#020202" opacity="1.000000" stroke="none" 
	d="
M502.329224,304.625824 
	C528.823059,348.569916 555.149963,392.188965 581.469910,435.812164 
	C594.288574,457.058136 607.062988,478.330902 619.947388,499.536926 
	C621.479675,502.058960 622.249329,504.538300 622.234070,507.501129 
	C622.145691,524.666687 622.079895,541.834412 622.288452,558.998047 
	C622.336792,562.970886 621.132812,564.115417 617.200195,564.173828 
	C595.043396,564.502869 572.889526,565.058044 550.737549,565.645386 
	C547.289612,565.736755 545.061340,564.999268 543.110718,561.627625 
	C516.607239,515.817261 489.907379,470.120544 463.249878,424.399353 
	C459.160950,417.386261 459.149780,417.396332 455.070618,424.176086 
	C429.596527,466.515320 404.121216,508.853790 378.643738,551.190918 
	C378.300385,551.761475 377.921875,552.310730 377.562653,552.871765 
	C374.876648,557.066101 374.571716,557.095459 371.802612,552.488403 
	C360.658142,533.946289 349.575958,515.366699 338.447754,496.814758 
	C303.271729,438.172607 268.085785,379.536346 232.896896,320.901947 
	C232.481689,320.210083 231.975708,319.572662 231.282166,318.581085 
	C229.299500,320.827423 229.987411,323.204315 229.986313,325.332916 
	C229.945908,403.330170 229.896378,481.327545 230.068710,559.324463 
	C230.079895,564.392456 228.831970,565.789490 223.746033,565.743713 
	C196.415878,565.497314 169.081787,565.542603 141.750519,565.716492 
	C137.418747,565.744019 136.147095,564.605652 136.151047,560.120972 
	C136.275406,418.959320 136.245911,277.797546 136.261566,136.635788 
	C136.262405,129.043350 135.256714,129.783279 143.256927,129.776337 
	C170.589279,129.752625 197.922318,129.851837 225.253311,129.656815 
	C229.141861,129.629074 231.196091,130.923477 233.117203,134.175598 
	C276.265747,207.218140 319.516571,280.200226 362.749420,353.192963 
	C366.056244,358.776093 369.400299,364.337402 372.671387,369.941376 
	C374.104767,372.397034 375.052551,373.118378 376.932495,370.036682 
	C401.533691,329.708649 426.247742,289.449493 450.934021,249.173355 
	C452.933563,245.911057 454.919373,242.640152 456.943817,239.393372 
	C459.891174,234.666397 460.186554,234.616867 463.003265,239.272568 
	C475.153320,259.355164 487.248138,279.471191 499.360168,299.576782 
	C500.304901,301.145020 501.226898,302.726929 502.329224,304.625824 
z"/>
<path fill="#030303" opacity="1.000000" stroke="none" 
	d="
M599.427307,400.610870 
	C576.615723,363.010376 554.024841,325.703003 531.328369,288.459930 
	C529.002319,284.643005 527.791199,280.869171 527.804260,276.304321 
	C527.939880,228.825348 527.949158,181.345581 527.777771,133.866821 
	C527.761292,129.297760 528.929565,127.993233 533.552368,128.028305 
	C561.538635,128.240692 589.527771,128.222534 617.514465,128.040192 
	C621.815308,128.012161 623.146545,129.015945 623.139954,133.549576 
	C622.994934,232.672958 623.022644,331.796570 623.017273,430.920166 
	C623.017212,432.677155 623.017273,434.434143 623.017273,436.191132 
	C622.499451,436.364563 621.981689,436.537964 621.463867,436.711395 
	C614.181885,424.781708 606.899841,412.852020 599.427307,400.610870 
z"/>
<path fill="#030303" opacity="1.000000" stroke="none" 
	d="
M411.386230,246.432968 
	C403.113983,259.920380 395.089142,273.136719 387.013794,286.322113 
	C383.951721,291.321838 383.832916,291.328857 380.781525,286.255371 
	C354.644653,242.797852 328.534210,199.324448 302.413849,155.857010 
	C297.631470,147.898560 292.839874,139.945648 288.054169,131.992859 
	C289.655060,130.271408 291.409393,130.915115 292.937927,130.913300 
	C326.585632,130.873596 360.233612,130.949844 393.880707,130.805954 
	C397.822296,130.789124 400.136719,131.923264 402.129517,135.430771 
	C413.794769,155.962646 425.645325,176.390274 437.596832,196.757172 
	C439.213501,199.512177 438.908752,201.465591 437.337616,204.005173 
	C428.678894,218.001297 420.172333,232.091583 411.386230,246.432968 
z"/>
</svg>